<svg xmlns="http://www.w3.org/2000/svg" viewBox="0 0 200 120" preserveAspectRatio="xMidYMid slice">
  <defs>
    <linearGradient id="bg5" x1="0" y1="0" x2="1" y2="1">
      <stop offset="0%" stop-color="#0a1929"/>
      <stop offset="100%" stop-color="#3d2a55"/>
    </linearGradient>
  </defs>
  <rect width="200" height="120" fill="url(#bg5)"/>
  <!-- ニューラルネット -->
  <g stroke="#7b2cbf" stroke-width="0.6" opacity="0.55" fill="none">
    <line x1="30" y1="30" x2="80" y2="25"/>
    <line x1="30" y1="30" x2="80" y2="60"/>
    <line x1="30" y1="30" x2="80" y2="95"/>
    <line x1="30" y1="60" x2="80" y2="25"/>
    <line x1="30" y1="60" x2="80" y2="60"/>
    <line x1="30" y1="60" x2="80" y2="95"/>
    <line x1="30" y1="90" x2="80" y2="25"/>
    <line x1="30" y1="90" x2="80" y2="60"/>
    <line x1="30" y1="90" x2="80" y2="95"/>
    <line x1="80" y1="25" x2="130" y2="40"/>
    <line x1="80" y1="25" x2="130" y2="80"/>
    <line x1="80" y1="60" x2="130" y2="40"/>
    <line x1="80" y1="60" x2="130" y2="80"/>
    <line x1="80" y1="95" x2="130" y2="40"/>
    <line x1="80" y1="95" x2="130" y2="80"/>
    <line x1="130" y1="40" x2="170" y2="60"/>
    <line x1="130" y1="80" x2="170" y2="60"/>
  </g>
  <g fill="#fff">
    <circle cx="30" cy="30" r="4"/>
    <circle cx="30" cy="60" r="4"/>
    <circle cx="30" cy="90" r="4"/>
    <circle cx="80" cy="25" r="3.5"/>
    <circle cx="80" cy="60" r="3.5"/>
    <circle cx="80" cy="95" r="3.5"/>
    <circle cx="130" cy="40" r="3.5"/>
    <circle cx="130" cy="80" r="3.5"/>
  </g>
  <circle cx="170" cy="60" r="6" fill="#7b2cbf"/>
  <circle cx="170" cy="60" r="2" fill="#fff"/>
</svg>
