<svg xmlns="http://www.w3.org/2000/svg" viewBox="0 0 600 360" preserveAspectRatio="xMidYMid slice">
  <defs>
    <linearGradient id="sky" x1="0" y1="0" x2="0" y2="1">
      <stop offset="0%" stop-color="#5b6f8a"/>
      <stop offset="60%" stop-color="#8ba0bd"/>
      <stop offset="100%" stop-color="#c4d3e6"/>
    </linearGradient>
    <linearGradient id="building1" x1="0" y1="0" x2="0" y2="1">
      <stop offset="0%" stop-color="#2c3e52"/>
      <stop offset="100%" stop-color="#1a2733"/>
    </linearGradient>
    <linearGradient id="building2" x1="0" y1="0" x2="0" y2="1">
      <stop offset="0%" stop-color="#3d5670"/>
      <stop offset="100%" stop-color="#2a3a4d"/>
    </linearGradient>
    <linearGradient id="building3" x1="0" y1="0" x2="0" y2="1">
      <stop offset="0%" stop-color="#4a6480"/>
      <stop offset="100%" stop-color="#34485e"/>
    </linearGradient>
    <radialGradient id="sun" cx="0.75" cy="0.25" r="0.15">
      <stop offset="0%" stop-color="#ffe4b3" stop-opacity="0.9"/>
      <stop offset="100%" stop-color="#ffe4b3" stop-opacity="0"/>
    </radialGradient>
  </defs>

  <!-- 空 -->
  <rect width="600" height="360" fill="url(#sky)"/>
  <!-- 太陽光 -->
  <ellipse cx="450" cy="80" rx="120" ry="80" fill="url(#sun)"/>

  <!-- 遠景の山並み -->
  <path d="M0,200 L60,170 L120,185 L200,150 L280,175 L380,140 L480,165 L600,145 L600,360 L0,360 Z"
        fill="#5d7290" opacity="0.6"/>

  <!-- スカイラインの建物群（データセンター風） -->
  <!-- 建物1 -->
  <rect x="20" y="180" width="60" height="180" fill="url(#building1)"/>
  <g fill="#ffd966" opacity="0.7">
    <rect x="28" y="195" width="6" height="6"/>
    <rect x="40" y="195" width="6" height="6"/>
    <rect x="52" y="195" width="6" height="6"/>
    <rect x="64" y="195" width="6" height="6"/>
    <rect x="28" y="210" width="6" height="6"/>
    <rect x="52" y="210" width="6" height="6"/>
    <rect x="64" y="210" width="6" height="6"/>
    <rect x="28" y="225" width="6" height="6"/>
    <rect x="40" y="225" width="6" height="6"/>
    <rect x="64" y="225" width="6" height="6"/>
    <rect x="28" y="240" width="6" height="6"/>
    <rect x="40" y="240" width="6" height="6"/>
    <rect x="52" y="240" width="6" height="6"/>
    <rect x="40" y="255" width="6" height="6"/>
    <rect x="52" y="255" width="6" height="6"/>
    <rect x="64" y="255" width="6" height="6"/>
    <rect x="28" y="270" width="6" height="6"/>
    <rect x="64" y="270" width="6" height="6"/>
    <rect x="28" y="285" width="6" height="6"/>
    <rect x="40" y="285" width="6" height="6"/>
    <rect x="52" y="285" width="6" height="6"/>
    <rect x="40" y="300" width="6" height="6"/>
    <rect x="64" y="300" width="6" height="6"/>
    <rect x="28" y="315" width="6" height="6"/>
    <rect x="52" y="315" width="6" height="6"/>
    <rect x="40" y="330" width="6" height="6"/>
    <rect x="64" y="330" width="6" height="6"/>
  </g>

  <!-- 建物2 メインのデータセンタータワー -->
  <rect x="100" y="120" width="100" height="240" fill="url(#building2)"/>
  <rect x="100" y="120" width="100" height="8" fill="#0a1420"/>
  <rect x="142" y="100" width="16" height="20" fill="#1a2733"/>
  <g fill="#7b2cbf" opacity="0.85">
    <rect x="110" y="140" width="8" height="8"/>
    <rect x="125" y="140" width="8" height="8"/>
    <rect x="155" y="140" width="8" height="8"/>
    <rect x="170" y="140" width="8" height="8"/>
    <rect x="185" y="140" width="8" height="8"/>
    <rect x="110" y="160" width="8" height="8"/>
    <rect x="140" y="160" width="8" height="8"/>
    <rect x="170" y="160" width="8" height="8"/>
    <rect x="125" y="180" width="8" height="8"/>
    <rect x="140" y="180" width="8" height="8"/>
    <rect x="155" y="180" width="8" height="8"/>
    <rect x="185" y="180" width="8" height="8"/>
    <rect x="110" y="200" width="8" height="8"/>
    <rect x="125" y="200" width="8" height="8"/>
    <rect x="170" y="200" width="8" height="8"/>
    <rect x="185" y="200" width="8" height="8"/>
    <rect x="140" y="220" width="8" height="8"/>
    <rect x="170" y="220" width="8" height="8"/>
    <rect x="110" y="240" width="8" height="8"/>
    <rect x="125" y="240" width="8" height="8"/>
    <rect x="155" y="240" width="8" height="8"/>
    <rect x="185" y="240" width="8" height="8"/>
    <rect x="140" y="260" width="8" height="8"/>
    <rect x="170" y="260" width="8" height="8"/>
    <rect x="125" y="280" width="8" height="8"/>
    <rect x="155" y="280" width="8" height="8"/>
    <rect x="170" y="280" width="8" height="8"/>
    <rect x="110" y="300" width="8" height="8"/>
    <rect x="155" y="300" width="8" height="8"/>
    <rect x="185" y="300" width="8" height="8"/>
    <rect x="125" y="320" width="8" height="8"/>
    <rect x="170" y="320" width="8" height="8"/>
  </g>

  <!-- 建物3 -->
  <rect x="220" y="160" width="70" height="200" fill="url(#building3)"/>
  <g fill="#ffd966" opacity="0.7">
    <rect x="230" y="180" width="5" height="5"/>
    <rect x="245" y="180" width="5" height="5"/>
    <rect x="260" y="180" width="5" height="5"/>
    <rect x="275" y="180" width="5" height="5"/>
    <rect x="230" y="195" width="5" height="5"/>
    <rect x="260" y="195" width="5" height="5"/>
    <rect x="275" y="195" width="5" height="5"/>
    <rect x="245" y="210" width="5" height="5"/>
    <rect x="260" y="210" width="5" height="5"/>
    <rect x="230" y="225" width="5" height="5"/>
    <rect x="275" y="225" width="5" height="5"/>
    <rect x="230" y="240" width="5" height="5"/>
    <rect x="245" y="240" width="5" height="5"/>
    <rect x="260" y="240" width="5" height="5"/>
    <rect x="245" y="255" width="5" height="5"/>
    <rect x="275" y="255" width="5" height="5"/>
    <rect x="230" y="270" width="5" height="5"/>
    <rect x="260" y="270" width="5" height="5"/>
    <rect x="275" y="270" width="5" height="5"/>
    <rect x="245" y="285" width="5" height="5"/>
    <rect x="260" y="285" width="5" height="5"/>
    <rect x="230" y="300" width="5" height="5"/>
    <rect x="245" y="300" width="5" height="5"/>
    <rect x="275" y="300" width="5" height="5"/>
    <rect x="230" y="315" width="5" height="5"/>
    <rect x="260" y="315" width="5" height="5"/>
    <rect x="245" y="330" width="5" height="5"/>
    <rect x="275" y="330" width="5" height="5"/>
  </g>

  <!-- 建物4 -->
  <rect x="305" y="200" width="50" height="160" fill="url(#building1)"/>

  <!-- 建物5 後景 -->
  <rect x="370" y="180" width="80" height="180" fill="url(#building2)"/>
  <rect x="380" y="170" width="60" height="10" fill="#1a2733"/>

  <!-- 建物6 -->
  <rect x="465" y="220" width="55" height="140" fill="url(#building3)"/>

  <!-- 建物7 後景 -->
  <rect x="535" y="195" width="65" height="165" fill="url(#building2)"/>
  <g fill="#ffd966" opacity="0.6">
    <rect x="545" y="215" width="5" height="5"/>
    <rect x="560" y="215" width="5" height="5"/>
    <rect x="575" y="215" width="5" height="5"/>
    <rect x="590" y="215" width="5" height="5"/>
    <rect x="545" y="230" width="5" height="5"/>
    <rect x="575" y="230" width="5" height="5"/>
    <rect x="560" y="245" width="5" height="5"/>
    <rect x="590" y="245" width="5" height="5"/>
    <rect x="545" y="260" width="5" height="5"/>
    <rect x="575" y="260" width="5" height="5"/>
    <rect x="560" y="275" width="5" height="5"/>
    <rect x="590" y="275" width="5" height="5"/>
  </g>

  <!-- データ通信ライン -->
  <g stroke="#7b2cbf" stroke-width="0.8" opacity="0.5" fill="none" stroke-dasharray="3,3">
    <path d="M150,140 Q300,90 480,150"/>
    <path d="M150,180 Q300,130 480,200"/>
    <path d="M250,200 Q400,150 555,210"/>
  </g>

  <!-- 通信ノードの光 -->
  <g fill="#7b2cbf">
    <circle cx="150" cy="140" r="3"/>
    <circle cx="480" cy="150" r="3"/>
    <circle cx="555" cy="210" r="2.5"/>
    <circle cx="250" cy="200" r="2.5"/>
  </g>
  <g fill="#fff">
    <circle cx="150" cy="140" r="1.5"/>
    <circle cx="480" cy="150" r="1.5"/>
  </g>

  <!-- 半透明オーバーレイ（新聞写真っぽい質感） -->
  <rect width="600" height="360" fill="#000" opacity="0.04"/>

  <!-- スキャンラインで新聞印刷感 -->
  <g stroke="#000" stroke-width="0.3" opacity="0.05">
    <line x1="0" y1="40" x2="600" y2="40"/>
    <line x1="0" y1="80" x2="600" y2="80"/>
    <line x1="0" y1="120" x2="600" y2="120"/>
    <line x1="0" y1="160" x2="600" y2="160"/>
    <line x1="0" y1="200" x2="600" y2="200"/>
    <line x1="0" y1="240" x2="600" y2="240"/>
    <line x1="0" y1="280" x2="600" y2="280"/>
    <line x1="0" y1="320" x2="600" y2="320"/>
  </g>
</svg>
